<?xml version="1.0" encoding="utf-8"?><svg version="1.1" id="Layer_1" xmlns="http://www.w3.org/2000/svg" xmlns:xlink="http://www.w3.org/1999/xlink" x="0px" y="0px" viewBox="0 0 122.88 106.16" style="enable-background:new 0 0 122.88 106.16" xml:space="preserve"><style type="text/css">.st0{fill-rule:evenodd;clip-rule:evenodd;}</style><g><path class="st0" d="M4.02,44.6h27.36c2.21,0,4.02,1.81,4.02,4.03v53.51c0,2.21-1.81,4.03-4.02,4.03H4.02 c-2.21,0-4.02-1.81-4.02-4.03V48.63C0,46.41,1.81,44.6,4.02,44.6L4.02,44.6z M63.06,4.46c2.12-10.75,19.72-0.85,20.88,16.48 c0.35,5.3-0.2,11.47-1.5,18.36l25.15,0c10.46,0.41,19.59,7.9,13.14,20.2c1.47,5.36,1.69,11.65-2.3,14.13 c0.5,8.46-1.84,13.7-6.22,17.84c-0.29,4.23-1.19,7.99-3.23,10.88c-3.38,4.77-6.12,3.63-11.44,3.63H55.07 c-6.73,0-10.4-1.85-14.8-7.37V51.31c12.66-3.42,19.39-20.74,22.79-32.11V4.46L63.06,4.46z"/></g></svg>