<?xml version="1.0" encoding="utf-8"?><svg version="1.1" id="Layer_1" xmlns="http://www.w3.org/2000/svg" xmlns:xlink="http://www.w3.org/1999/xlink" x="0px" y="0px" viewBox="0 0 122.88 106.16" style="enable-background:new 0 0 122.88 106.16" xml:space="preserve"><style type="text/css">.st0{fill-rule:evenodd;clip-rule:evenodd;}</style><g><path class="st0" d="M4.03,61.56h27.36c2.21,0,4.02-1.81,4.02-4.02V4.03C35.41,1.81,33.6,0,31.39,0H4.03C1.81,0,0,1.81,0,4.03 v53.51C0,59.75,1.81,61.56,4.03,61.56L4.03,61.56z M63.06,101.7c2.12,10.75,19.72,0.85,20.88-16.48c0.35-5.3-0.2-11.47-1.5-18.36 l25.15,0c10.46-0.41,19.59-7.9,13.14-20.2c1.47-5.36,1.69-11.65-2.3-14.13c0.5-8.46-1.84-13.7-6.22-17.84 c-0.29-4.23-1.19-7.99-3.23-10.88c-3.38-4.77-6.12-3.63-11.44-3.63H55.07c-6.73,0-10.4,1.85-14.8,7.37v47.31 c12.66,3.42,19.39,20.74,22.79,32.11V101.7L63.06,101.7L63.06,101.7z"/></g></svg>